<?xml version="1.0" standalone="no"?>
<!DOCTYPE svg PUBLIC "-//W3C//DTD SVG 20010904//EN"
 "http://www.w3.org/TR/2001/REC-SVG-20010904/DTD/svg10.dtd">
<svg version="1.0" xmlns="http://www.w3.org/2000/svg"
 width="487.000000pt" height="487.000000pt" viewBox="0 0 487.000000 487.000000"
 preserveAspectRatio="xMidYMid meet">
<metadata>
Created by potrace 1.11, written by Peter Selinger 2001-2013
</metadata>
<g transform="translate(0.000000,487.000000) scale(0.100000,-0.100000)"
fill="#000000" stroke="none">
<path d="M2190 4859 c-36 -5 -83 -11 -105 -14 -22 -3 -56 -8 -75 -11 -19 -3
-91 -18 -160 -35 -762 -186 -1403 -751 -1685 -1484 -116 -303 -160 -543 -160
-875 0 -215 16 -386 47 -505 5 -22 12 -48 14 -58 40 -209 188 -557 329 -771
266 -405 664 -737 1100 -916 11 -4 36 -15 55 -23 34 -15 149 -54 180 -62 8 -2
59 -15 113 -29 305 -79 684 -94 1001 -40 368 63 733 218 1029 436 45 34 84 64
87 67 3 3 27 24 55 46 228 183 492 530 626 823 66 144 148 379 164 475 4 17
10 50 15 72 58 263 61 639 5 940 -131 722 -621 1371 -1290 1710 -234 119 -524
212 -750 240 -27 4 -61 9 -75 12 -43 8 -451 10 -520 2z"/>
</g>
</svg>
